<?xml version='1.0' encoding='UTF-8' standalone='no'?>
<!-- Created with Fritzing (http://www.fritzing.org/) -->
<svg xmlns="http://www.w3.org/2000/svg" width="0.905512in" xmlns:svg="http://www.w3.org/2000/svg" y="0in"  version="1.2" baseProfile="tiny" height="2.08661in" x="0in" viewBox="0 0 65.1969 150.236">
 <g partID="67022">
  <g id="silkscreen0">
   <rect stroke="black" stroke-width="0.576" width="64.6209" y="0.288" fill="none" height="149.66" x="0.288"/>
  </g>
 </g>
 <g partID="67020">
  <g id="board">
   <rect stroke="black" stroke-width="0.5" width="64.6209" id="boardoutline" y="0.288" fill="none" height="149.66" fill-opacity="0.5" x="0.288"/>
  </g>
 </g>
 <g partID="67022">
  <g id="silkscreen0">
   <rect stroke="black" stroke-width="0.576" width="64.6209" y="0.288" fill="none" height="149.66" x="0.288"/>
  </g>
 </g>
 <g partID="854116850">
  <g transform="translate(55.4456,140.699)">
   <g id="copper0">
    <circle stroke="white" stroke-width="0.72" id="nonconn0" fill="white" cy="4.71811" r="3.11811" cx="4.71811"/>
   </g>
  </g>
 </g>
 <g partID="854116880">
  <g transform="translate(0.1696,140.699)">
   <g id="copper0">
    <circle stroke="white" stroke-width="0.72" id="nonconn0" fill="white" cy="4.71811" r="3.11811" cx="4.71811"/>
   </g>
  </g>
 </g>
 <g partID="854116910">
  <g transform="translate(55.4456,0.100774)">
   <g id="copper0">
    <circle stroke="white" stroke-width="0.72" id="nonconn0" fill="white" cy="4.71811" r="3.11811" cx="4.71811"/>
   </g>
  </g>
 </g>
 <g partID="854117860">
  <g transform="translate(0.4536,0.100774)">
   <g id="copper0">
    <circle stroke="white" stroke-width="0.72" id="nonconn0" fill="white" cy="4.71811" r="3.11811" cx="4.71811"/>
   </g>
  </g>
 </g>
 <g partID="76020">
  <g transform="translate(53.7064,21.6057)">
   <g id="copper0">
    <circle stroke="white" stroke-width="2.16" id="connector0pin" fill="white" cy="5.04" r="2.088" cx="5.04"/>
    <circle stroke="white" stroke-width="2.16" id="connector1pin" fill="white" cy="12.24" r="2.088" cx="5.04"/>
   </g>
  </g>
 </g>
 <g partID="76530">
  <g transform="translate(53.7064,35.7789)">
   <g id="copper0">
    <circle stroke="white" stroke-width="2.16" id="connector0pin" fill="white" cy="5.04" r="2.088" cx="5.04"/>
    <circle stroke="white" stroke-width="2.16" id="connector1pin" fill="white" cy="12.24" r="2.088" cx="5.04"/>
   </g>
  </g>
 </g>
 <g partID="76860">
  <g transform="translate(53.7064,50.2356)">
   <g id="copper0">
    <circle stroke="white" stroke-width="2.16" id="connector0pin" fill="white" cy="5.04" r="2.088" cx="5.04"/>
    <circle stroke="white" stroke-width="2.16" id="connector1pin" fill="white" cy="12.24" r="2.088" cx="5.04"/>
   </g>
  </g>
 </g>
 <g partID="854113630">
  <g transform="translate(53.9904,122.519)">
   <g id="copper0">
    <circle stroke="white" stroke-width="2.16" id="connector0pin" fill="white" cy="5.04" r="2.088" cx="5.04"/>
    <circle stroke="white" stroke-width="2.16" id="connector1pin" fill="white" cy="12.24" r="2.088" cx="5.04"/>
   </g>
  </g>
 </g>
 <g partID="67060">
  <g transform="translate(53.3888,123.732)">
   <g transform="matrix(-1,0,0,-1,0,0)">
    <g id="copper0">
     <circle stroke="white" stroke-width="1.944" id="connector16pad" fill="white" cy="10.8" r="1.908" cx="3.6"/>
     <rect stroke="white" stroke-width="1.944" width="3.814" y="8.892" fill="white" height="3.816" x="1.692"/>
     <circle stroke="white" stroke-width="1.944" id="connector17pad" fill="white" cy="18" r="1.908" cx="3.6"/>
     <circle stroke="white" stroke-width="1.944" id="connector18pad" fill="white" cy="25.2" r="1.908" cx="3.6"/>
     <circle stroke="white" stroke-width="1.944" id="connector19pad" fill="white" cy="32.4" r="1.908" cx="3.6"/>
     <circle stroke="white" stroke-width="1.944" id="connector20pad" fill="white" cy="39.6" r="1.908" cx="3.6"/>
     <circle stroke="white" stroke-width="1.944" id="connector21pad" fill="white" cy="46.8" r="1.908" cx="3.6"/>
     <circle stroke="white" stroke-width="1.944" id="connector22pad" fill="white" cy="54" r="1.908" cx="3.6"/>
     <circle stroke="white" stroke-width="1.944" id="connector23pad" fill="white" cy="61.2" r="1.908" cx="3.6"/>
     <circle stroke="white" stroke-width="1.944" id="connector24pad" fill="white" cy="68.4" r="1.908" cx="3.6"/>
     <circle stroke="white" stroke-width="1.944" id="connector25pad" fill="white" cy="75.6" r="1.908" cx="3.6"/>
     <circle stroke="white" stroke-width="1.944" id="connector26pad" fill="white" cy="82.8" r="1.908" cx="3.6"/>
     <circle stroke="white" stroke-width="1.944" id="connector27pad" fill="white" cy="90" r="1.908" cx="3.6"/>
     <circle stroke="white" stroke-width="1.944" id="connector28pad" fill="white" cy="97.2" r="1.908" cx="3.6"/>
     <circle stroke="white" stroke-width="1.944" id="connector29pad" fill="white" cy="104.4" r="1.908" cx="3.6"/>
     <circle stroke="white" stroke-width="1.944" id="connector30pad" fill="white" cy="111.6" r="1.908" cx="3.6"/>
     <circle stroke="white" stroke-width="1.944" id="connector31pad" fill="white" cy="10.8" r="1.908" cx="46.8"/>
     <circle stroke="white" stroke-width="1.944" id="connector32pad" fill="white" cy="18" r="1.908" cx="46.8"/>
     <circle stroke="white" stroke-width="1.944" id="connector33pad" fill="white" cy="25.2" r="1.908" cx="46.8"/>
     <circle stroke="white" stroke-width="1.944" id="connector34pad" fill="white" cy="32.4" r="1.908" cx="46.8"/>
     <circle stroke="white" stroke-width="1.944" id="connector35pad" fill="white" cy="39.6" r="1.908" cx="46.8"/>
     <circle stroke="white" stroke-width="1.944" id="connector36pad" fill="white" cy="46.8" r="1.908" cx="46.8"/>
     <circle stroke="white" stroke-width="1.944" id="connector37pad" fill="white" cy="54" r="1.908" cx="46.8"/>
     <circle stroke="white" stroke-width="1.944" id="connector38pad" fill="white" cy="61.2" r="1.908" cx="46.8"/>
     <circle stroke="white" stroke-width="1.944" id="connector39pad" fill="white" cy="68.4" r="1.908" cx="46.8"/>
     <circle stroke="white" stroke-width="1.944" id="connector40pad" fill="white" cy="75.6" r="1.908" cx="46.8"/>
     <circle stroke="white" stroke-width="1.944" id="connector41pad" fill="white" cy="82.8" r="1.908" cx="46.8"/>
     <circle stroke="white" stroke-width="1.944" id="connector42pad" fill="white" cy="90" r="1.908" cx="46.8"/>
     <circle stroke="white" stroke-width="1.944" id="connector43pad" fill="white" cy="97.2" r="1.908" cx="46.8"/>
     <circle stroke="white" stroke-width="1.944" id="connector44pad" fill="white" cy="104.4" r="1.908" cx="46.8"/>
     <circle stroke="white" stroke-width="1.944" id="connector45pad" fill="white" cy="111.6" r="1.908" cx="46.8"/>
    </g>
   </g>
  </g>
 </g>
 <g partID="67350">
  <g transform="translate(17.6952,124.22)">
   <g transform="matrix(0,1,-1,0,0,0)">
    <g id="copper0">
     <rect stroke="white" width="4.176" stroke-width="2.16" id="square" y="2.952" fill="white" height="4.176" x="2.952"/>
     <circle stroke="white" stroke-width="2.16" id="connector0pin" fill="white" cy="5.04" r="2.088" cx="5.04"/>
     <circle stroke="white" stroke-width="2.16" id="connector1pin" fill="white" cy="12.24" r="2.088" cx="5.04"/>
    </g>
   </g>
  </g>
 </g>
 <g partID="67520">
  <g transform="translate(47.544,143.66)">
   <g transform="matrix(-1,0,0,-1,0,0)">
    <g id="copper0">
     <rect stroke="white" stroke-width="2.16" width="4.464" y="12.168" fill="white" height="4.464" x="6.408"/>
     <circle stroke="white" stroke-width="2.16" id="connector0pad" fill="white" cy="14.4" r="2.232" cx="8.64"/>
     <circle stroke="white" stroke-width="2.16" id="connector1pad" fill="white" cy="14.4" r="2.232" cx="15.84"/>
     <circle stroke="white" stroke-width="2.16" id="connector2pad" fill="white" cy="14.4" r="2.232" cx="23.04"/>
    </g>
   </g>
  </g>
 </g>
 <g partID="67660">
  <g transform="translate(44.8344,59.7757)">
   <g transform="matrix(0,1,-1,0,0,0)">
    <g id="copper0">
     <g id="copper1">
      <!-- <rect width="55" x="10" y="15.5" fill="none" height="55" stroke="rgb(255, 191, 0)" stroke-width="20" />  -->
      <circle stroke="white" stroke-width="2.16" id="connector0pin" fill="white" cy="3.096" r="1.98" cx="2.7"/>
      <circle stroke="white" stroke-width="2.16" id="connector1pin" fill="white" cy="3.096" r="1.98" cx="31.5"/>
     </g>
    </g>
   </g>
  </g>
 </g>
 <g partID="67870">
  <g transform="translate(38.5984,59.7757)">
   <g transform="matrix(0,1,-1,0,0,0)">
    <g id="copper0">
     <g id="copper1">
      <!-- <rect width="55" x="10" y="15.5" fill="none" height="55" stroke="rgb(255, 191, 0)" stroke-width="20" />  -->
      <circle stroke="white" stroke-width="2.16" id="connector0pin" fill="white" cy="3.096" r="1.98" cx="2.7"/>
      <circle stroke="white" stroke-width="2.16" id="connector1pin" fill="white" cy="3.096" r="1.98" cx="31.5"/>
     </g>
    </g>
   </g>
  </g>
 </g>
 <g partID="68190">
  <g transform="translate(32.3616,59.7757)">
   <g transform="matrix(0,1,-1,0,0,0)">
    <g id="copper0">
     <g id="copper1">
      <!-- <rect width="55" x="10" y="15.5" fill="none" height="55" stroke="rgb(255, 191, 0)" stroke-width="20" />  -->
      <circle stroke="white" stroke-width="2.16" id="connector0pin" fill="white" cy="3.096" r="1.98" cx="2.7"/>
      <circle stroke="white" stroke-width="2.16" id="connector1pin" fill="white" cy="3.096" r="1.98" cx="31.5"/>
     </g>
    </g>
   </g>
  </g>
 </g>
 <g partID="71200">
  <g transform="translate(8.9912,102.636)">
   <g id="copper0">
    <g id="copper1">
     <!-- <rect width="55" x="10" y="15.5" fill="none" height="55" stroke="rgb(255, 191, 0)" stroke-width="20" />  -->
     <circle stroke="white" stroke-width="2.16" id="connector0pin" fill="white" cy="3.096" r="1.98" cx="2.7"/>
     <circle stroke="white" stroke-width="2.16" id="connector1pin" fill="white" cy="3.096" r="1.98" cx="31.5"/>
    </g>
   </g>
  </g>
 </g>
 <g partID="854133670">
  <g transform="translate(46.3591,144.952)">
   <g transform="matrix(0,-1,1,0,0,0)">
    <g id="copper0">
     <rect stroke="white" stroke-width="2.16" width="4.464" y="1.368" fill="white" height="4.464" x="0.72"/>
     <circle stroke="white" stroke-width="2.16" id="connector0pin" fill="white" cy="3.6" r="2.232" cx="3.024"/>
     <circle stroke="white" stroke-width="2.16" id="connector1pin" fill="white" cy="3.6" r="2.232" cx="24.48"/>
    </g>
   </g>
  </g>
 </g>
</svg>
