<?xml version='1.0' encoding='UTF-8' standalone='no'?>
<!-- Created with Fritzing (http://www.fritzing.org/) -->
<svg xmlns="http://www.w3.org/2000/svg" width="0.905512in" xmlns:svg="http://www.w3.org/2000/svg" y="0in"  version="1.2" baseProfile="tiny" height="2.08661in" x="0in" viewBox="0 0 65.1969 150.236">
 <g partID="67021">
  <g id="silkscreen">
   <rect stroke="black" stroke-width="0.576" width="64.6209" y="0.288" fill="none" height="149.66" x="0.288"/>
  </g>
 </g>
 <g partID="67020">
  <g id="board">
   <rect stroke="black" stroke-width="0.5" width="64.6209" id="boardoutline" y="0.288" fill="none" height="149.66" fill-opacity="0.5" x="0.288"/>
  </g>
 </g>
 <g partID="76021">
  <g transform="translate(53.7064,21.6057)">
   <g id="silkscreen">
    <line stroke="black" y1="1.44" stroke-width="0.72" y2="15.84" x1="1.44" x2="1.44"/>
    <line stroke="black" y1="15.84" stroke-width="0.72" y2="15.84" x1="1.44" x2="8.64"/>
    <line stroke="black" y1="15.84" stroke-width="0.72" y2="1.44" x1="8.64" x2="8.64"/>
    <line stroke="black" y1="1.44" stroke-width="0.72" y2="1.44" x1="8.64" x2="1.44"/>
    <line stroke="black" y1="3.96" stroke-width="0.36" y2="1.44" x1="1.44" x2="3.96"/>
    <!-- 120 -->
   </g>
  </g>
 </g>
 <g partID="76531">
  <g transform="translate(53.7064,35.7789)">
   <g id="silkscreen">
    <line stroke="black" y1="1.44" stroke-width="0.72" y2="15.84" x1="1.44" x2="1.44"/>
    <line stroke="black" y1="15.84" stroke-width="0.72" y2="15.84" x1="1.44" x2="8.64"/>
    <line stroke="black" y1="15.84" stroke-width="0.72" y2="1.44" x1="8.64" x2="8.64"/>
    <line stroke="black" y1="1.44" stroke-width="0.72" y2="1.44" x1="8.64" x2="1.44"/>
    <line stroke="black" y1="3.96" stroke-width="0.36" y2="1.44" x1="1.44" x2="3.96"/>
    <!-- 120 -->
   </g>
  </g>
 </g>
 <g partID="76861">
  <g transform="translate(53.7064,50.2356)">
   <g id="silkscreen">
    <line stroke="black" y1="1.44" stroke-width="0.72" y2="15.84" x1="1.44" x2="1.44"/>
    <line stroke="black" y1="15.84" stroke-width="0.72" y2="15.84" x1="1.44" x2="8.64"/>
    <line stroke="black" y1="15.84" stroke-width="0.72" y2="1.44" x1="8.64" x2="8.64"/>
    <line stroke="black" y1="1.44" stroke-width="0.72" y2="1.44" x1="8.64" x2="1.44"/>
    <line stroke="black" y1="3.96" stroke-width="0.36" y2="1.44" x1="1.44" x2="3.96"/>
    <!-- 120 -->
   </g>
  </g>
 </g>
 <g partID="854113631">
  <g transform="translate(53.9904,122.519)">
   <g id="silkscreen">
    <line stroke="black" y1="1.44" stroke-width="0.72" y2="15.84" x1="1.44" x2="1.44"/>
    <line stroke="black" y1="15.84" stroke-width="0.72" y2="15.84" x1="1.44" x2="8.64"/>
    <line stroke="black" y1="15.84" stroke-width="0.72" y2="1.44" x1="8.64" x2="8.64"/>
    <line stroke="black" y1="1.44" stroke-width="0.72" y2="1.44" x1="8.64" x2="1.44"/>
    <line stroke="black" y1="3.96" stroke-width="0.36" y2="1.44" x1="1.44" x2="3.96"/>
    <!-- 120 -->
   </g>
  </g>
 </g>
 <g partID="67061">
  <g transform="translate(53.3888,123.732)">
   <g transform="matrix(-1,0,0,-1,0,0)">
    <g id="silkscreen">
     <path stroke="black" stroke-width="0.576" fill="none" d="M0.288,122.136l49.824,0L50.112,0.288L0.288,0.288L0.288,122.136"/>
     <g>
      <title>element:J1</title>
      <g>
       <title>package:HEAD15-NOSS</title>
      </g>
     </g>
     <g>
      <title>element:J2</title>
      <g>
       <title>package:HEAD15-NOSS-1</title>
      </g>
     </g>
     <g>
      <title>element:U2</title>
      <g>
       <title>package:SSOP28</title>
      </g>
     </g>
     <g>
      <title>element:U3</title>
      <g>
       <title>package:SOT223</title>
      </g>
     </g>
    </g>
   </g>
  </g>
 </g>
 <g partID="67021">
  <g id="silkscreen">
   <rect stroke="black" stroke-width="0.576" width="64.6209" y="0.288" fill="none" height="149.66" x="0.288"/>
  </g>
 </g>
 <g partID="67351">
  <g transform="translate(17.6952,124.22)">
   <g transform="matrix(0,1,-1,0,0,0)">
    <g id="silkscreen">
     <line stroke="black" y1="1.44" stroke-width="0.72" y2="15.84" x1="1.44" x2="1.44"/>
     <line stroke="black" y1="15.84" stroke-width="0.72" y2="15.84" x1="1.44" x2="8.64"/>
     <line stroke="black" y1="15.84" stroke-width="0.72" y2="1.44" x1="8.64" x2="8.64"/>
     <line stroke="black" y1="1.44" stroke-width="0.72" y2="1.44" x1="8.64" x2="1.44"/>
     <line stroke="black" y1="3.96" stroke-width="0.36" y2="1.44" x1="1.44" x2="3.96"/>
     <!-- 120 -->
    </g>
   </g>
  </g>
 </g>
 <g partID="67521">
  <g transform="translate(47.544,143.66)">
   <g transform="matrix(-1,0,0,-1,0,0)">
    <g id="silkscreen">
     <line stroke="black" y1="5.76" stroke-width="0.72" y2="5.76" x1="1.44" x2="30.24"/>
     <line stroke="black" y1="5.76" stroke-width="0.72" y2="18.72" x1="30.24" x2="30.24"/>
     <line stroke="black" y1="18.72" stroke-width="0.72" y2="18.72" x1="30.24" x2="1.44"/>
     <line stroke="black" y1="18.72" stroke-width="0.72" y2="5.76" x1="1.44" x2="1.44"/>
     <line stroke="black" y1="5.76" stroke-width="0.72" y2="5.76" x1="1.44" x2="30.24"/>
     <line stroke="black" y1="5.76" stroke-width="0.72" y2="10.08" x1="30.24" x2="30.24"/>
     <line stroke="black" y1="10.08" stroke-width="0.72" y2="10.08" x1="30.24" x2="1.44"/>
     <line stroke="black" y1="10.08" stroke-width="0.72" y2="5.76" x1="1.44" x2="1.44"/>
     <line stroke="black" y1="5.76" stroke-width="0.36" y2="10.08" x1="10.8" x2="10.8"/>
     <line stroke="black" y1="5.76" stroke-width="0.36" y2="10.08" x1="20.88" x2="20.88"/>
    </g>
   </g>
  </g>
 </g>
 <g partID="67661">
  <g transform="translate(44.8344,59.7757)">
   <g transform="matrix(0,1,-1,0,0,0)">
    <g id="silkscreen">
     <line stroke="black" y1="3.096" y2="3.096" stroke-width="0.72" x1="5.4" x2="10.584"/>
     <line stroke="black" y1="3.096" y2="3.096" stroke-width="0.72" x1="24.984" x2="28.8"/>
     <line stroke="black" y1="0.72" y2="0.72" stroke-width="0.72" x1="10.584" x2="24.984"/>
     <line stroke="black" y1="0.72" y2="5.472" stroke-width="0.72" x1="24.984" x2="24.984"/>
     <line stroke="black" y1="5.472" y2="5.472" stroke-width="0.72" x1="24.984" x2="10.584"/>
     <line stroke="black" y1="5.472" y2="0.72" stroke-width="0.72" x1="10.584" x2="10.584"/>
    </g>
   </g>
  </g>
 </g>
 <g partID="67871">
  <g transform="translate(38.5984,59.7757)">
   <g transform="matrix(0,1,-1,0,0,0)">
    <g id="silkscreen">
     <line stroke="black" y1="3.096" y2="3.096" stroke-width="0.72" x1="5.4" x2="10.584"/>
     <line stroke="black" y1="3.096" y2="3.096" stroke-width="0.72" x1="24.984" x2="28.8"/>
     <line stroke="black" y1="0.72" y2="0.72" stroke-width="0.72" x1="10.584" x2="24.984"/>
     <line stroke="black" y1="0.72" y2="5.472" stroke-width="0.72" x1="24.984" x2="24.984"/>
     <line stroke="black" y1="5.472" y2="5.472" stroke-width="0.72" x1="24.984" x2="10.584"/>
     <line stroke="black" y1="5.472" y2="0.72" stroke-width="0.72" x1="10.584" x2="10.584"/>
    </g>
   </g>
  </g>
 </g>
 <g partID="68191">
  <g transform="translate(32.3616,59.7757)">
   <g transform="matrix(0,1,-1,0,0,0)">
    <g id="silkscreen">
     <line stroke="black" y1="3.096" y2="3.096" stroke-width="0.72" x1="5.4" x2="10.584"/>
     <line stroke="black" y1="3.096" y2="3.096" stroke-width="0.72" x1="24.984" x2="28.8"/>
     <line stroke="black" y1="0.72" y2="0.72" stroke-width="0.72" x1="10.584" x2="24.984"/>
     <line stroke="black" y1="0.72" y2="5.472" stroke-width="0.72" x1="24.984" x2="24.984"/>
     <line stroke="black" y1="5.472" y2="5.472" stroke-width="0.72" x1="24.984" x2="10.584"/>
     <line stroke="black" y1="5.472" y2="0.72" stroke-width="0.72" x1="10.584" x2="10.584"/>
    </g>
   </g>
  </g>
 </g>
 <g partID="71201">
  <g transform="translate(8.9912,102.636)">
   <g id="silkscreen">
    <line stroke="black" y1="3.096" y2="3.096" stroke-width="0.72" x1="5.4" x2="10.584"/>
    <line stroke="black" y1="3.096" y2="3.096" stroke-width="0.72" x1="24.984" x2="28.8"/>
    <line stroke="black" y1="0.72" y2="0.72" stroke-width="0.72" x1="10.584" x2="24.984"/>
    <line stroke="black" y1="0.72" y2="5.472" stroke-width="0.72" x1="24.984" x2="24.984"/>
    <line stroke="black" y1="5.472" y2="5.472" stroke-width="0.72" x1="24.984" x2="10.584"/>
    <line stroke="black" y1="5.472" y2="0.72" stroke-width="0.72" x1="10.584" x2="10.584"/>
   </g>
  </g>
 </g>
 <g partID="854133671">
  <g transform="translate(46.3591,144.952)">
   <g transform="matrix(0,-1,1,0,0,0)">
    <g id="silkscreen">
     <line stroke="black" y1="3.6" stroke-width="0.72" y2="3.6" x1="5.976" stroke-linecap="flat" x2="6.912"/>
     <line stroke="black" y1="3.6" stroke-width="0.72" y2="3.6" x1="20.952" stroke-linecap="flat" x2="21.456"/>
     <line stroke="black" y1="0.36" stroke-width="0.72" y2="0.36" x1="6.912" stroke-linecap="flat" x2="20.952"/>
     <line stroke="black" y1="0.36" stroke-width="0.72" y2="6.84" x1="20.952" stroke-linecap="flat" x2="20.952"/>
     <line stroke="black" y1="6.84" stroke-width="0.72" y2="6.84" x1="20.952" stroke-linecap="flat" x2="6.912"/>
     <line stroke="black" y1="6.84" stroke-width="0.72" y2="0.36" x1="6.912" stroke-linecap="flat" x2="6.912"/>
     <line stroke="black" y1="6.84" stroke-width="1.44" y2="0.36" x1="8.352" stroke-linecap="flat" x2="8.352"/>
    </g>
   </g>
  </g>
 </g>
 <g partID="67060" id="partLabel">
  <g transform="translate(2.98896,129.332)">
   <g transform="matrix(-1,0,0,-1,0,0)">
    <g stroke="none" font-weight="normal" font-style="normal" id="silkscreenLabel" font-family="'OCRA'" fill="#000000" font-size="5" fill-opacity="1">
     <text y="3.75" x="0">Sou&#x10d;&#xe1;stka1</text>
    </g>
   </g>
  </g>
 </g>
 <g partID="67520" id="partLabel">
  <g transform="translate(15.864,149.26)">
   <g transform="matrix(-1,0,0,-1,0,0)">
    <g stroke="none" font-weight="normal" font-style="normal" id="silkscreenLabel" font-family="'OCRA'" fill="#000000" font-size="5" fill-opacity="1">
     <text y="3.75" x="0">Q1</text>
    </g>
   </g>
  </g>
 </g>
 <g partID="67870" id="partLabel">
  <g transform="translate(44.1984,93.976)">
   <g transform="matrix(0,1,-1,0,0,0)">
    <g stroke="none" font-weight="normal" font-style="normal" id="silkscreenLabel" font-family="'OCRA'" fill="#000000" font-size="5" fill-opacity="1">
     <text y="3.75" x="0">R2</text>
    </g>
   </g>
  </g>
 </g>
 <g partID="67660" id="partLabel">
  <g transform="translate(50.4344,93.976)">
   <g transform="matrix(0,1,-1,0,0,0)">
    <g stroke="none" font-weight="normal" font-style="normal" id="silkscreenLabel" font-family="'OCRA'" fill="#000000" font-size="5" fill-opacity="1">
     <text y="3.75" x="0">R1</text>
    </g>
   </g>
  </g>
 </g>
 <g partID="67350" id="partLabel">
  <g transform="translate(23.2952,134.3)">
   <g transform="matrix(0,1,-1,0,0,0)">
    <g stroke="none" font-weight="normal" font-style="normal" id="silkscreenLabel" font-family="'OCRA'" fill="#000000" font-size="5" fill-opacity="1">
     <text y="3.75" x="0">VCC1</text>
    </g>
   </g>
  </g>
 </g>
 <g partID="71200" id="partLabel">
  <g transform="translate(43.1912,97.036)">
   <g stroke="none" font-weight="normal" font-style="normal" id="silkscreenLabel" font-family="'OCRA'" fill="#000000" font-size="5" fill-opacity="1">
    <text y="3.75" x="0">R4</text>
   </g>
  </g>
 </g>
 <g partID="68190" id="partLabel">
  <g transform="translate(37.9616,93.976)">
   <g transform="matrix(0,1,-1,0,0,0)">
    <g stroke="none" font-weight="normal" font-style="normal" id="silkscreenLabel" font-family="'OCRA'" fill="#000000" font-size="5" fill-opacity="1">
     <text y="3.75" x="0">R3</text>
    </g>
   </g>
  </g>
 </g>
 <g partID="76530" id="partLabel">
  <g transform="translate(63.7864,30.1789)">
   <g stroke="none" font-weight="normal" font-style="normal" id="silkscreenLabel" font-family="'OCRA'" fill="#000000" font-size="5" fill-opacity="1">
    <text y="3.75" x="0">J2</text>
   </g>
  </g>
 </g>
 <g partID="76860" id="partLabel">
  <g transform="translate(63.7864,44.6356)">
   <g stroke="none" font-weight="normal" font-style="normal" id="silkscreenLabel" font-family="'OCRA'" fill="#000000" font-size="5" fill-opacity="1">
    <text y="3.75" x="0">J3</text>
   </g>
  </g>
 </g>
 <g partID="76020" id="partLabel">
  <g transform="translate(63.7864,16.0057)">
   <g stroke="none" font-weight="normal" font-style="normal" id="silkscreenLabel" font-family="'OCRA'" fill="#000000" font-size="5" fill-opacity="1">
    <text y="3.75" x="0">J1</text>
   </g>
  </g>
 </g>
 <g partID="854113630" id="partLabel">
  <g transform="translate(64.0704,116.919)">
   <g stroke="none" font-weight="normal" font-style="normal" id="silkscreenLabel" font-family="'OCRA'" fill="#000000" font-size="5" fill-opacity="1">
    <text y="3.75" x="0">J4</text>
   </g>
  </g>
 </g>
 <g partID="854133670" id="partLabel">
  <g transform="translate(40.7591,117.448)">
   <g transform="matrix(0,-1,1,0,0,0)">
    <g stroke="none" font-weight="normal" font-style="normal" id="silkscreenLabel" font-family="'OCRA'" fill="#000000" font-size="5" fill-opacity="1">
     <text y="3.75" x="0">D1</text>
    </g>
   </g>
  </g>
 </g>
 <g partID="854116851">
  <g transform="translate(55.4456,140.699)">
   <g id="copper1">
    <circle stroke="white" stroke-width="0.72" id="nonconn0" fill="white" cy="4.71811" r="3.11811" cx="4.71811"/>
   </g>
  </g>
 </g>
 <g partID="854116881">
  <g transform="translate(0.1696,140.699)">
   <g id="copper1">
    <circle stroke="white" stroke-width="0.72" id="nonconn0" fill="white" cy="4.71811" r="3.11811" cx="4.71811"/>
   </g>
  </g>
 </g>
 <g partID="854116911">
  <g transform="translate(55.4456,0.100774)">
   <g id="copper1">
    <circle stroke="white" stroke-width="0.72" id="nonconn0" fill="white" cy="4.71811" r="3.11811" cx="4.71811"/>
   </g>
  </g>
 </g>
 <g partID="854117861">
  <g transform="translate(0.4536,0.100774)">
   <g id="copper1">
    <circle stroke="white" stroke-width="0.72" id="nonconn0" fill="white" cy="4.71811" r="3.11811" cx="4.71811"/>
   </g>
  </g>
 </g>
 <g partID="76022">
  <g transform="translate(53.7064,21.6057)">
   <g id="copper1">
    <g id="copper0">
     <circle stroke="white" stroke-width="2.16" id="connector0pin" fill="white" cy="5.04" r="2.088" cx="5.04"/>
     <circle stroke="white" stroke-width="2.16" id="connector1pin" fill="white" cy="12.24" r="2.088" cx="5.04"/>
    </g>
   </g>
  </g>
 </g>
 <g partID="76532">
  <g transform="translate(53.7064,35.7789)">
   <g id="copper1">
    <g id="copper0">
     <circle stroke="white" stroke-width="2.16" id="connector0pin" fill="white" cy="5.04" r="2.088" cx="5.04"/>
     <circle stroke="white" stroke-width="2.16" id="connector1pin" fill="white" cy="12.24" r="2.088" cx="5.04"/>
    </g>
   </g>
  </g>
 </g>
 <g partID="76862">
  <g transform="translate(53.7064,50.2356)">
   <g id="copper1">
    <g id="copper0">
     <circle stroke="white" stroke-width="2.16" id="connector0pin" fill="white" cy="5.04" r="2.088" cx="5.04"/>
     <circle stroke="white" stroke-width="2.16" id="connector1pin" fill="white" cy="12.24" r="2.088" cx="5.04"/>
    </g>
   </g>
  </g>
 </g>
 <g partID="854113632">
  <g transform="translate(53.9904,122.519)">
   <g id="copper1">
    <g id="copper0">
     <circle stroke="white" stroke-width="2.16" id="connector0pin" fill="white" cy="5.04" r="2.088" cx="5.04"/>
     <circle stroke="white" stroke-width="2.16" id="connector1pin" fill="white" cy="12.24" r="2.088" cx="5.04"/>
    </g>
   </g>
  </g>
 </g>
 <g partID="67062">
  <g transform="translate(53.3888,123.732)">
   <g transform="matrix(-1,0,0,-1,0,0)">
    <g id="copper1">
     <g id="copper0">
      <circle stroke="white" stroke-width="1.944" id="connector16pad" fill="white" cy="10.8" r="1.908" cx="3.6"/>
      <rect stroke="white" stroke-width="1.944" width="3.814" y="8.892" fill="white" height="3.816" x="1.692"/>
      <circle stroke="white" stroke-width="1.944" id="connector17pad" fill="white" cy="18" r="1.908" cx="3.6"/>
      <circle stroke="white" stroke-width="1.944" id="connector18pad" fill="white" cy="25.2" r="1.908" cx="3.6"/>
      <circle stroke="white" stroke-width="1.944" id="connector19pad" fill="white" cy="32.4" r="1.908" cx="3.6"/>
      <circle stroke="white" stroke-width="1.944" id="connector20pad" fill="white" cy="39.6" r="1.908" cx="3.6"/>
      <circle stroke="white" stroke-width="1.944" id="connector21pad" fill="white" cy="46.8" r="1.908" cx="3.6"/>
      <circle stroke="white" stroke-width="1.944" id="connector22pad" fill="white" cy="54" r="1.908" cx="3.6"/>
      <circle stroke="white" stroke-width="1.944" id="connector23pad" fill="white" cy="61.2" r="1.908" cx="3.6"/>
      <circle stroke="white" stroke-width="1.944" id="connector24pad" fill="white" cy="68.4" r="1.908" cx="3.6"/>
      <circle stroke="white" stroke-width="1.944" id="connector25pad" fill="white" cy="75.6" r="1.908" cx="3.6"/>
      <circle stroke="white" stroke-width="1.944" id="connector26pad" fill="white" cy="82.8" r="1.908" cx="3.6"/>
      <circle stroke="white" stroke-width="1.944" id="connector27pad" fill="white" cy="90" r="1.908" cx="3.6"/>
      <circle stroke="white" stroke-width="1.944" id="connector28pad" fill="white" cy="97.2" r="1.908" cx="3.6"/>
      <circle stroke="white" stroke-width="1.944" id="connector29pad" fill="white" cy="104.4" r="1.908" cx="3.6"/>
      <circle stroke="white" stroke-width="1.944" id="connector30pad" fill="white" cy="111.6" r="1.908" cx="3.6"/>
      <circle stroke="white" stroke-width="1.944" id="connector31pad" fill="white" cy="10.8" r="1.908" cx="46.8"/>
      <circle stroke="white" stroke-width="1.944" id="connector32pad" fill="white" cy="18" r="1.908" cx="46.8"/>
      <circle stroke="white" stroke-width="1.944" id="connector33pad" fill="white" cy="25.2" r="1.908" cx="46.8"/>
      <circle stroke="white" stroke-width="1.944" id="connector34pad" fill="white" cy="32.4" r="1.908" cx="46.8"/>
      <circle stroke="white" stroke-width="1.944" id="connector35pad" fill="white" cy="39.6" r="1.908" cx="46.8"/>
      <circle stroke="white" stroke-width="1.944" id="connector36pad" fill="white" cy="46.8" r="1.908" cx="46.8"/>
      <circle stroke="white" stroke-width="1.944" id="connector37pad" fill="white" cy="54" r="1.908" cx="46.8"/>
      <circle stroke="white" stroke-width="1.944" id="connector38pad" fill="white" cy="61.2" r="1.908" cx="46.8"/>
      <circle stroke="white" stroke-width="1.944" id="connector39pad" fill="white" cy="68.4" r="1.908" cx="46.8"/>
      <circle stroke="white" stroke-width="1.944" id="connector40pad" fill="white" cy="75.6" r="1.908" cx="46.8"/>
      <circle stroke="white" stroke-width="1.944" id="connector41pad" fill="white" cy="82.8" r="1.908" cx="46.8"/>
      <circle stroke="white" stroke-width="1.944" id="connector42pad" fill="white" cy="90" r="1.908" cx="46.8"/>
      <circle stroke="white" stroke-width="1.944" id="connector43pad" fill="white" cy="97.2" r="1.908" cx="46.8"/>
      <circle stroke="white" stroke-width="1.944" id="connector44pad" fill="white" cy="104.4" r="1.908" cx="46.8"/>
      <circle stroke="white" stroke-width="1.944" id="connector45pad" fill="white" cy="111.6" r="1.908" cx="46.8"/>
     </g>
    </g>
   </g>
  </g>
 </g>
 <g partID="67352">
  <g transform="translate(17.6952,124.22)">
   <g transform="matrix(0,1,-1,0,0,0)">
    <g id="copper1">
     <g id="copper0">
      <rect stroke="white" width="4.176" stroke-width="2.16" id="square" y="2.952" fill="white" height="4.176" x="2.952"/>
      <circle stroke="white" stroke-width="2.16" id="connector0pin" fill="white" cy="5.04" r="2.088" cx="5.04"/>
      <circle stroke="white" stroke-width="2.16" id="connector1pin" fill="white" cy="12.24" r="2.088" cx="5.04"/>
     </g>
    </g>
   </g>
  </g>
 </g>
 <g partID="67522">
  <g transform="translate(47.544,143.66)">
   <g transform="matrix(-1,0,0,-1,0,0)">
    <g id="copper1">
     <g id="copper0">
      <rect stroke="white" stroke-width="2.16" width="4.464" y="12.168" fill="white" height="4.464" x="6.408"/>
      <circle stroke="white" stroke-width="2.16" id="connector0pad" fill="white" cy="14.4" r="2.232" cx="8.64"/>
      <circle stroke="white" stroke-width="2.16" id="connector1pad" fill="white" cy="14.4" r="2.232" cx="15.84"/>
      <circle stroke="white" stroke-width="2.16" id="connector2pad" fill="white" cy="14.4" r="2.232" cx="23.04"/>
     </g>
    </g>
   </g>
  </g>
 </g>
 <g partID="67662">
  <g transform="translate(44.8344,59.7757)">
   <g transform="matrix(0,1,-1,0,0,0)">
    <g id="copper1">
     <!-- <rect width="55" x="10" y="15.5" fill="none" height="55" stroke="rgb(255, 191, 0)" stroke-width="20" />  -->
     <circle stroke="white" stroke-width="2.16" id="connector0pin" fill="white" cy="3.096" r="1.98" cx="2.7"/>
     <circle stroke="white" stroke-width="2.16" id="connector1pin" fill="white" cy="3.096" r="1.98" cx="31.5"/>
    </g>
   </g>
  </g>
 </g>
 <g partID="67872">
  <g transform="translate(38.5984,59.7757)">
   <g transform="matrix(0,1,-1,0,0,0)">
    <g id="copper1">
     <!-- <rect width="55" x="10" y="15.5" fill="none" height="55" stroke="rgb(255, 191, 0)" stroke-width="20" />  -->
     <circle stroke="white" stroke-width="2.16" id="connector0pin" fill="white" cy="3.096" r="1.98" cx="2.7"/>
     <circle stroke="white" stroke-width="2.16" id="connector1pin" fill="white" cy="3.096" r="1.98" cx="31.5"/>
    </g>
   </g>
  </g>
 </g>
 <g partID="68192">
  <g transform="translate(32.3616,59.7757)">
   <g transform="matrix(0,1,-1,0,0,0)">
    <g id="copper1">
     <!-- <rect width="55" x="10" y="15.5" fill="none" height="55" stroke="rgb(255, 191, 0)" stroke-width="20" />  -->
     <circle stroke="white" stroke-width="2.16" id="connector0pin" fill="white" cy="3.096" r="1.98" cx="2.7"/>
     <circle stroke="white" stroke-width="2.16" id="connector1pin" fill="white" cy="3.096" r="1.98" cx="31.5"/>
    </g>
   </g>
  </g>
 </g>
 <g partID="71202">
  <g transform="translate(8.9912,102.636)">
   <g id="copper1">
    <!-- <rect width="55" x="10" y="15.5" fill="none" height="55" stroke="rgb(255, 191, 0)" stroke-width="20" />  -->
    <circle stroke="white" stroke-width="2.16" id="connector0pin" fill="white" cy="3.096" r="1.98" cx="2.7"/>
    <circle stroke="white" stroke-width="2.16" id="connector1pin" fill="white" cy="3.096" r="1.98" cx="31.5"/>
   </g>
  </g>
 </g>
 <g partID="854133672">
  <g transform="translate(46.3591,144.952)">
   <g transform="matrix(0,-1,1,0,0,0)">
    <g id="copper1">
     <g id="copper0">
      <rect stroke="white" stroke-width="2.16" width="4.464" y="1.368" fill="white" height="4.464" x="0.72"/>
      <circle stroke="white" stroke-width="2.16" id="connector0pin" fill="white" cy="3.6" r="2.232" cx="3.024"/>
      <circle stroke="white" stroke-width="2.16" id="connector1pin" fill="white" cy="3.6" r="2.232" cx="24.48"/>
     </g>
    </g>
   </g>
  </g>
 </g>
</svg>
